<?xml version="1.0" standalone="no"?>
<!DOCTYPE svg PUBLIC "-//W3C//DTD SVG 20010904//EN"
 "http://www.w3.org/TR/2001/REC-SVG-20010904/DTD/svg10.dtd">
<svg version="1.0" xmlns="http://www.w3.org/2000/svg"
 width="300.000000pt" height="300.000000pt" viewBox="0 0 300.000000 300.000000"
 preserveAspectRatio="xMidYMid meet">
<metadata>
Created by potrace 1.11, written by Peter Selinger 2001-2013
</metadata>
<g transform="translate(0.000000,300.000000) scale(0.100000,-0.100000)"
fill="#000000" stroke="none">
<path d="M401 2438 c7 -13 183 -324 392 -693 208 -369 438 -773 509 -900 72
-126 145 -251 162 -277 29 -45 31 -47 48 -30 15 15 124 203 507 870 42 73 84
147 95 165 32 57 258 451 279 487 58 104 183 320 204 352 12 21 23 40 23 43 0
3 -502 5 -1115 5 l-1116 0 12 -22z m269 -83 c0 -6 -51 -85 -55 -85 -2 0 -15
20 -28 45 l-26 45 55 0 c30 0 54 -2 54 -5z m52 -22 c-11 -16 -31 -48 -46 -72
-20 -30 -31 -40 -38 -33 -11 11 -1 33 49 100 31 41 64 46 35 5z m109 -64 c-18
-63 -27 -85 -32 -72 -16 38 -8 76 23 119 17 24 32 44 33 44 1 0 -10 -41 -24
-91z m128 -6 l-52 -97 12 -75 c53 -327 105 -545 135 -570 11 -10 263 -102 347
-128 8 -2 20 -16 26 -31 6 -15 28 -56 49 -91 30 -52 33 -63 18 -57 -10 4 -80
26 -154 48 -74 22 -150 47 -168 56 -34 17 -64 63 -186 287 -18 33 -63 114
-101 180 l-68 119 12 81 c12 74 58 268 82 343 10 30 14 32 55 32 l45 0 -52
-97z m125 65 c-17 -18 -43 -46 -58 -63 -31 -35 -27 -15 12 53 18 32 30 42 50
42 l26 0 -30 -32z m454 -80 c32 -62 73 -139 91 -171 l33 -57 -78 50 c-110 70
-104 68 -133 29 -46 -61 -84 -90 -250 -196 -114 -72 -166 -100 -172 -92 -4 7
-10 35 -14 63 -4 28 -9 60 -11 71 -2 11 -9 54 -15 96 l-11 76 59 55 c32 30 76
70 98 89 22 19 42 36 45 39 3 3 21 18 40 33 33 25 41 27 147 27 l111 0 60
-112z m265 -40 c48 -84 114 -200 147 -257 35 -59 58 -110 55 -120 -3 -9 -17
-30 -32 -46 -16 -17 -45 -49 -65 -73 -21 -23 -38 -40 -38 -38 0 3 12 37 26 77
17 48 23 78 17 87 -4 8 -51 44 -102 81 -102 71 -106 77 -260 366 l-40 75 102
0 102 0 88 -152z m234 140 c1 -40 14 -241 18 -283 2 -27 7 -79 10 -115 l5 -65
-63 105 c-35 58 -100 165 -145 238 l-82 132 128 0 c96 0 129 -3 129 -12z m114
5 c6 -43 7 -513 1 -517 -5 -3 -8 18 -9 47 0 29 -3 97 -7 152 -7 98 -9 121 -21
258 -6 63 -5 67 14 67 12 0 21 -3 22 -7z m116 -113 l50 -119 -46 -83 c-26 -46
-57 -99 -69 -118 l-22 -35 -1 48 c-1 58 -1 89 0 277 1 138 2 150 19 150 14 0
31 -29 69 -120z m84 60 c35 -52 36 -56 22 -83 -8 -16 -16 -27 -18 -25 -2 2
-20 41 -39 86 -30 70 -33 83 -19 80 10 -2 34 -28 54 -58z m65 34 c11 -16 12
-24 1 -37 -11 -15 -15 -12 -35 24 l-24 41 23 -4 c12 -2 28 -12 35 -24z m34 16
c0 -5 -4 -10 -10 -10 -5 0 -10 5 -10 10 0 6 5 10 10 10 6 0 10 -4 10 -10z
m-1675 -166 c4 -21 8 -46 11 -55 2 -8 -2 -36 -10 -62 -7 -25 -11 -48 -8 -51 3
-4 1 -6 -4 -6 -5 0 -23 26 -40 58 l-31 57 35 53 c19 29 36 51 38 49 2 -2 6
-21 9 -43z m793 -206 c120 -66 282 -176 282 -193 0 -8 -25 -72 -56 -142 -31
-70 -67 -158 -79 -195 -13 -37 -27 -74 -32 -82 -7 -12 -57 2 -295 82 -161 54
-288 102 -288 109 0 6 17 31 38 55 20 24 50 60 65 79 16 18 25 28 22 22 -7
-16 28 -50 114 -110 35 -24 88 -65 117 -91 30 -25 62 -47 72 -49 21 -3 113 71
170 137 45 52 65 88 81 145 16 57 -1 77 -91 104 -40 13 -92 29 -116 37 -23 8
-49 14 -57 14 -21 0 -121 -96 -139 -135 -15 -31 -15 -37 -1 -58 22 -35 90 -93
114 -100 28 -7 48 14 61 65 15 53 0 67 -24 23 -11 -19 -25 -35 -32 -35 -13 0
-74 59 -74 71 0 12 69 96 83 102 18 7 130 -101 146 -141 12 -29 10 -34 -27
-84 -22 -29 -51 -63 -64 -76 l-24 -22 -120 90 c-65 50 -123 97 -128 104 -13
19 128 268 173 303 23 18 24 17 109 -29z m-236 -60 c-17 -24 -50 -61 -74 -82
-23 -20 -78 -72 -121 -113 -42 -42 -79 -74 -81 -72 -3 2 -8 27 -11 55 l-7 50
158 105 c88 57 161 104 162 102 2 -1 -10 -21 -26 -45z m348 -111 c48 -21 50
-24 38 -58 l-10 -30 -42 38 c-22 21 -57 51 -76 66 l-35 27 45 -14 c25 -7 61
-21 80 -29z m383 -45 l25 -39 -20 -34 c-14 -24 -42 -47 -96 -77 -42 -23 -97
-54 -121 -68 l-44 -27 23 40 c12 22 40 60 62 84 21 24 62 70 90 102 28 31 52
57 53 57 1 0 14 -17 28 -38z m-68 -201 c-7 -13 -205 -111 -205 -102 0 6 26 22
135 82 67 37 84 42 70 20z m-52 -90 c-15 -26 -50 -86 -76 -133 -43 -74 -55
-88 -102 -114 l-54 -29 -74 73 c-41 39 -71 72 -67 72 4 0 38 -9 75 -21 77 -24
79 -23 109 53 20 51 23 54 116 100 52 26 96 48 98 48 1 0 -10 -22 -25 -49z
m-451 -128 c18 -20 60 -66 93 -101 l60 -64 -40 7 c-22 4 -44 10 -48 12 -8 5
-52 70 -72 108 -6 11 -19 32 -29 48 -26 39 -3 33 36 -10z m-102 -173 c69 -21
163 -48 208 -61 82 -22 84 -22 115 -4 l31 19 -21 -35 c-25 -38 1 -34 -265 -42
l-157 -5 -50 90 -50 89 32 -7 c18 -3 88 -23 157 -44z m280 -167 c0 -5 -4 -14
-8 -21 -7 -10 -18 -10 -58 0 l-49 13 50 6 c28 3 53 7 58 7 4 1 7 -1 7 -5z
m-125 -39 c44 -15 82 -28 84 -30 2 -2 -4 -15 -14 -30 -17 -26 -18 -27 -104
-20 -136 11 -125 6 -160 69 l-21 37 68 0 c45 0 92 -8 147 -26z m-17 -124 c43
0 48 -5 33 -28 -7 -11 -19 -11 -72 4 -76 20 -104 40 -44 30 22 -3 59 -6 83 -6z
m-17 -47 c40 -8 36 -19 -8 -26 -41 -7 -48 -4 -64 25 -10 19 -9 20 16 14 15 -4
40 -10 56 -13z m-1 -71 c0 -13 -12 -22 -22 -16 -10 6 -1 24 13 24 5 0 9 -4 9
-8z"/>
</g>
</svg>
